<?xml version="1.0" encoding="UTF-8" standalone="no"?>
<!-- Created with Inkscape (http://www.inkscape.org/) -->

<svg
   width="51.837959mm"
   height="82.748543mm"
   viewBox="0 0 51.837959 82.748543"
   version="1.1"
   id="svg5"
   xml:space="preserve"
   xmlns:inkscape="http://www.inkscape.org/namespaces/inkscape"
   xmlns:sodipodi="http://sodipodi.sourceforge.net/DTD/sodipodi-0.dtd"
   xmlns="http://www.w3.org/2000/svg"
   xmlns:svg="http://www.w3.org/2000/svg"><sodipodi:namedview
     id="namedview7"
     pagecolor="#ffffff"
     bordercolor="#000000"
     borderopacity="0.25"
     inkscape:showpageshadow="2"
     inkscape:pageopacity="0.0"
     inkscape:pagecheckerboard="0"
     inkscape:deskcolor="#d1d1d1"
     inkscape:document-units="mm"
     showgrid="false" /><defs
     id="defs2" /><path
     style="display:inline;fill:#000000;stroke-width:0.264583"
     d="m 7.7931795,81.859434 -0.649433,-0.64943 v -9.11257 -9.11257 l -1.323578,-0.84934 c -2.680843,-1.72029 -4.855874,-4.92652 -5.527786,-8.14854 -0.160811,-0.77115 -0.2923860004744,-3.00898 -0.2923860004744,-4.97297 0,-3.43852 0.024080000474,-3.59495 0.6494330004744,-4.2203 0.778756,-0.77876 1.712722,-0.8314 2.562402,-0.14442 0.598377,0.48381 0.630571,0.68671 0.766175,4.82865 0.132911,4.05965 0.185979,4.40902 0.869167,5.72219 1.026078,1.97224 2.374837,3.36615 4.050295,4.18588 0.792991,0.38797 1.6157705,0.95379 1.8284105,1.25737 0.33456,0.47765 0.38662,10.5593 0.38662,10.5593 v 10.00732 l -0.64944,0.64943 c -0.357188,0.35718 -0.9579095,0.64943 -1.3349395,0.64943 -0.377029,0 -0.977755,-0.29225 -1.33494,-0.64943 z m 24.3893715,0.10106 -0.69714,-0.54837 v -10.28065 c 0,0 0.0384,-10.31908 0.42616,-10.7068 0.23438,-0.23438 0.99112,-0.71244 1.68163,-1.06235 2.70542,-1.37094 3.30258,-2.37052 8.93342,-14.95346 2.83273,-6.33016 5.20925,-11.9261 5.28115,-12.43542 0.1036,-0.73383 0.002,-1.04554 -0.48904,-1.50174 -0.34088,-0.31664 -0.93445,-0.65377 -1.31906,-0.74918 -1.3343,-0.33102 -2.06481,0.78217 -5.03652,7.67488 -1.50575,3.4925 -2.87052,6.5772 -3.03283,6.85489 -0.23655,0.40472 -0.83291,0.56949 -3.00567,0.83042 -3.56322,0.42791 -5.81214,1.50325 -7.06839,3.37981 -0.46806,0.69918 -0.91454,1.68048 -0.99218,2.18067 -0.0776,0.50018 -0.20538,1.32231 -0.28385,1.82695 -0.26404,1.69789 -1.754351,2.46124 -2.989201,1.53111 -0.65348,-0.49221 -0.70382,-0.67223 -0.69418,-2.48216 0.009,-1.62482 0.15075,-2.25139 0.84894,-3.7434 1.504321,-3.21465 4.987171,-5.9511 8.184601,-6.43059 l 1.14252,-0.17133 V 26.110524 11.047285 l -0.64943,-0.64943 c -0.85919,-0.8592003 -2.07528,-0.8592003 -2.93447,0 l -0.64943,0.64943 v 10.295099 c 0,10.01464 -0.0149,10.31408 -0.54837,10.99223 -0.68712,0.87353 -2.10337,0.95581 -2.89121,0.16798 -0.514941,-0.51494 -0.529171,-0.88195 -0.529171,-13.64344 0,-9.4628393 -0.0857,-13.2751793 -0.3078,-13.6921893 -0.73033,-1.37124 -2.125631,-1.62417 -3.315471,-0.601 l -0.74236,0.63837 -0.0691,13.4506893 c -0.0683,13.29797 -0.0754,13.45595 -0.62463,13.91371 -0.30552,0.25466 -0.8863,0.46302 -1.29062,0.46302 -0.40432,0 -0.98436,-0.20836 -1.28897,-0.46302 -0.54278,-0.45376 -0.55526,-0.67376 -0.62463,-11.00336 l -0.0708,-10.540349 -0.74235,-0.6383 c -1.18353,-1.0176303 -2.58097,-0.8280803 -3.23618,0.43895 -0.32347,0.62552 -0.38709,2.77289 -0.38709,13.064819 0,11.96348 -0.0152,12.33142 -0.52917,12.84543 -0.31474,0.31474 -0.8776,0.52752 -1.38906,0.52511 -1.9783675,-0.009 -2.0505195,-0.32553 -2.0505195,-8.98641 v -7.43775 l -0.649433,-0.64944 c -0.859192,-0.85919 -2.075275,-0.85919 -2.934467,0 l -0.649433,0.64944 v 7.91384 c 0,7.60559 -0.02135,7.941 -0.54837,8.61098 -0.716812,0.91128 -2.031823,0.95046 -2.845094,0.0848 -0.565189,-0.60161 -0.575241000474,-0.75602 -0.572701,-8.79739 0.0026,-8.03087 0.01429,-8.21015 0.62365,-9.51876 1.118192,-2.40131 3.484959,-3.756929 6.089789,-3.488089 l 1.419942,0.14655 0.118396,-2.87353 c 0.10767,-2.61326 0.189185,-2.9880303 0.899951,-4.1376703 0.47758,-0.77247 1.2852895,-1.57556 2.0767295,-2.06487 1.15289,-0.71279 1.5227,-0.80075 3.36644,-0.80075 2.04457,0 2.07127,-0.009 2.07127,-0.67565 0,-0.37161 0.3052,-1.28813 0.67823,-2.0367 2.12727,-4.26887 8.423512,-4.26549 10.527382,0.006 0.37489,0.76108 0.74554,1.70259 0.82366,2.09224 0.13751,0.68591 0.18714,0.70381 1.55893,0.56223 2.44492,-0.25234 4.91807,1.03843 6.04992,3.15753 0.59793,1.1194603 0.60351,1.2273303 0.73479,14.2037993 l 0.13229,13.07576 1.4126,-3.28618 c 0.77693,-1.8074 1.70508,-3.79289 2.06257,-4.41219 1.48728,-2.57654 5.28478,-3.51988 8.06911,-2.00446 2.2157,1.20594 3.48584,3.85034 3.0262,6.30047 -0.0619,0.33021 -1.02884,2.63516 -2.37648,5.73779 -3.15041,7.25307 -8.38156,18.8654 -8.99653,19.79951 -0.86626,1.31582 -2.6022,3.04312 -3.84985,3.83073 l -1.06741,0.67382 v 8.87336 c 0,5.21197 -0.053,8.97592 -0.38709,9.62192 -0.62831,1.21502 -2.88452,1.97152 -2.88452,0.52888 z"
     id="path318"
     sodipodi:nodetypes="scccsssssssssccssscccsssscssssscsscsscccsscscsssscssssscsssssscsscssscsscssssssssssscssssssscscsc" /></svg>
