<?xml version="1.0" encoding="UTF-8" standalone="no"?>
<!-- Created with Inkscape (http://www.inkscape.org/) -->

<svg
   width="42.565483mm"
   height="76.224152mm"
   viewBox="0 0 42.565483 76.224151"
   version="1.1"
   id="svg5"
   xml:space="preserve"
   sodipodi:docname="rock.svg"
   xmlns:inkscape="http://www.inkscape.org/namespaces/inkscape"
   xmlns:sodipodi="http://sodipodi.sourceforge.net/DTD/sodipodi-0.dtd"
   xmlns="http://www.w3.org/2000/svg"
   xmlns:svg="http://www.w3.org/2000/svg"><sodipodi:namedview
     id="namedview7"
     pagecolor="#ffffff"
     bordercolor="#000000"
     borderopacity="0.25"
     inkscape:showpageshadow="2"
     inkscape:pageopacity="0.0"
     inkscape:pagecheckerboard="0"
     inkscape:deskcolor="#d1d1d1"
     inkscape:document-units="mm"
     showgrid="false" /><defs
     id="defs2" /><path
     d="m 7.7921711,75.574673 -0.649432,-0.64943 -0.01271,-18.599017 -0.01271,-11.71984 -1.469048,-0.92604 c -2.541934,-1.60236 -4.777155,-4.99856 -5.379213,-8.17319 -0.358216,-1.88887 -0.358982,-25.49502 -8.68e-4,-26.78426 0.146434,-0.52718 0.743267,-1.50043 1.326298,-2.16279 1.375648,-1.56282 2.843084,-2.13721 5.093905,-1.99389 l 1.685308,0.10731 0.466209,-1.127179 C 9.3564671,2.297431 10.74177,0.945331 12.075944,0.387881 c 1.436665,-0.60028 3.790752,-0.46643 5.226913,0.29718 l 1.243091,0.66096 1.241607,-0.66096 c 1.719856,-0.91555 3.942884,-0.91327 5.787494,0.006 l 1.338286,0.66689 1.161058,-0.6637 c 0.887251,-0.50719 1.535438,-0.66309 2.74856,-0.66109 1.983346,0.003 3.391061,0.61935 4.678746,2.04759 1.135867,1.259846 1.535438,2.481715 1.537486,4.701555 l 0.0016,1.59877 1.175721,0.31445 c 1.417966,0.37925 2.881733,1.60722 3.668512,3.07754 0.563798,1.05362 0.581924,1.36732 0.659796,11.41842 0.0877,11.3191 -0.05291,12.85837 -1.43211,15.67734 -0.813091,1.6619 -3.369251,4.49233 -4.708239,5.21342 l -0.93572,0.50392 -0.07387,11.87379 -0.07388,18.752967 -0.624623,0.50562 c -0.849407,0.687578 -1.783437,0.63516 -2.562402,-0.14381 l -0.649545,-0.64942 V 55.448936 c 0,-8.00222 0.09779,-12.77985 0.2681,-13.09807 0.147452,-0.27552 0.798393,-0.73553 1.446535,-1.02223 1.773153,-0.78435 3.654687,-2.69194 4.53495,-4.59775 l 0.761873,-1.6495 v -10.77423 -10.77424 l -0.602213,-0.60285 c -0.591616,-0.59224 -0.724281,-0.60427 -7.540625,-0.68392 -7.54569,-0.0882 -8.429378,-0.0155 -9.202127,0.75729 -0.663639,0.66364 -0.668185,2.11776 -0.0092,2.9325 0.497062,0.61451 0.600207,0.62676 6.371947,0.75691 5.417219,0.12216 5.895435,0.17164 6.241634,0.64588 0.503354,0.68952 0.54066,8.02656 0.0442,8.69234 -0.181901,0.24394 -0.907857,0.61572 -1.613236,0.82617 -3.29815,0.98403 -4.992351,3.20146 -5.598819,7.32793 -0.174736,1.18893 -0.940223,1.91046 -2.026861,1.91046 -1.796771,0 -2.301368,-2.13746 -1.282971,-5.43465 0.910308,-2.94723 3.242517,-5.59111 6.156262,-6.97896 0.939535,-0.44751 0.992187,-0.53883 0.992187,-1.72081 v -1.24821 l -4.696354,-0.0918 c -4.521125,-0.0884 -4.743246,-0.1183 -5.953124,-0.80083 l -1.256771,-0.70898 -1.238913,0.69245 c -1.749212,0.97765 -3.988328,0.97022 -5.758417,-0.0191 l -1.273074,-0.71153 -0.8342559,0.5156 c -1.228111,0.75901 -3.133205,1.11989 -4.404313,0.83429 l -1.072611,-0.241 0.0809,7.58196 0.0809,7.58197 0.740473,1.50788 c 0.910157,1.85342 2.661527,3.62213 4.38676,4.43019 0.739415,0.34632 1.4254809,0.8852 1.5918479,1.25034 0.200198,0.43938 0.292377,4.56214 0.292377,13.07669 v 19.314167 l -0.649431,0.64943 c -0.357189,0.357188 -0.9579119,0.64943 -1.3349439,0.64943 -0.377031,0 -0.977755,-0.29224 -1.334943,-0.64943 z M 7.1238161,16.305756 c 0.998903,-0.51655 1.077257,-0.80145 1.077257,-3.91697 0,-2.38058 -0.06299,-2.74034 -0.575287,-3.28566 -0.834664,-0.88845 -2.377209,-0.8464 -3.109676,0.0848 -0.471254,0.5991 -0.54837,1.06706 -0.54837,3.32764 0,2.55463 0.02231,2.65282 0.773397,3.4039 0.871949,0.87195 1.307116,0.94251 2.382679,0.38631 z m 8.8815459,-0.41972 c 0.478722,-0.47807 0.538333,-0.94432 0.615206,-4.81188 0.09563,-4.81114 -0.02224,-5.8278 -0.761337,-6.5669 -0.663649,-0.663649 -2.117771,-0.668179 -2.932493,-0.009 -0.611234,0.49444 -0.626386,0.61364 -0.706849,5.56053 l -0.08223,5.05525 0.82043,0.82043 c 0.692017,0.69201 0.953217,0.79387 1.668807,0.65075 0.466607,-0.0933 1.086915,-0.40789 1.378462,-0.69904 z m 8.810008,-8.99837 c 0.104159,-1.96806 -0.562196,-2.89482 -2.081419,-2.89482 -1.610489,0 -2.09736,0.66008 -2.097927,2.84427 l -4.77e-4,1.78594 2.050985,-0.13229 2.050985,-0.13229 0.07784,-1.47081 z m 8.256534,0.0513 c 0,-2.01394 -0.64947,-2.9461 -2.052672,-2.9461 -1.563428,0 -2.180661,0.7994 -2.180661,2.82425 v 1.67367 h 2.116666 2.116667 z"
     style="display:inline;fill:#000000;stroke-width:0.264583"
     id="path480"
     inkscape:export-filename="path480.svg"
     inkscape:export-xdpi="96"
     inkscape:export-ydpi="96"
     sodipodi:nodetypes="ccccssscscccccsccccscccsssscccsccsssscccscccssscsssssccsccscsscccsssscsscccsccsccccssccccccccsccccccssscccs" /></svg>
