<?xml version="1.0" encoding="UTF-8" standalone="no"?>
<!-- Created with Inkscape (http://www.inkscape.org/) -->

<svg
   width="43.075073mm"
   height="85.694054mm"
   viewBox="0 0 43.075073 85.694054"
   version="1.1"
   id="svg5"
   xml:space="preserve"
   xmlns:inkscape="http://www.inkscape.org/namespaces/inkscape"
   xmlns:sodipodi="http://sodipodi.sourceforge.net/DTD/sodipodi-0.dtd"
   xmlns="http://www.w3.org/2000/svg"
   xmlns:svg="http://www.w3.org/2000/svg"><sodipodi:namedview
     id="namedview7"
     pagecolor="#ffffff"
     bordercolor="#000000"
     borderopacity="0.25"
     inkscape:showpageshadow="2"
     inkscape:pageopacity="0.0"
     inkscape:pagecheckerboard="0"
     inkscape:deskcolor="#d1d1d1"
     inkscape:document-units="mm"
     showgrid="false" /><defs
     id="defs2" /><path
     d="m 7.862868,85.213617 -0.62463,-0.5057 -0.0718,-17.20534 c -0.0178,-4.2556 -0.0796,-5.03701 -0.60167,-5.20269 -0.82046,-0.2604 -3.55428,-2.90995 -4.4619,-4.32434 -0.44851,-0.69896 -1.07926,-1.97559 -1.40165997,-2.83697 -0.57001,-1.52295 -0.58872,-1.91764 -0.67864,-14.31066 -0.0611,-8.42307 0.002,-13.09716 0.18758,-13.78451 0.39031,-1.44952 1.28167997,-2.68094 2.62297997,-3.62364 1.05299,-0.74007 1.31849,-0.80358 3.35917,-0.80358 h 2.21581 l 0.4637,-1.02831 c 0.91902,-2.03803 3.15522,-3.584359 5.20043,-3.596089 0.96522,-0.006 1.00593,-0.0403 0.85962,-0.73341 -0.5585,-2.645746 -2.00513,-10.8702903 -2.00513,-11.3997583 0,-2.016904 1.64374,-4.496187 3.55711,-5.36526704 0.65591,-0.29792 1.69483,-0.489675 2.67231,-0.49322799786 1.34008,-0.004900002 1.83123,0.13352199786 3.03121,0.85408599786 2.1909,1.31559504 2.57745,2.28266804 3.96598,9.92212434 0.64143,3.529017 1.24376,6.326983 1.33852,6.217703 0.0948,-0.10928 0.91522,-2.877587 1.82324,-6.151806 1.85222,-6.6789523 2.25513,-7.7414663 3.35036,-8.8352643 1.70742,-1.70517604 4.67428,-2.24484104 6.86666,-1.24903104 2.0262,0.92032404 3.57926,3.38302804 3.5423,5.61707504 -0.008,0.49244 -1.2376,5.1777853 -2.73212,10.4118763 l -2.71732,9.516529 1.21077,0.57138 c 0.66593,0.31426 1.59266,0.97335 2.05942,1.46466 1.61295,1.69779 1.6649,2.11768 1.6649,13.45617 0,5.86504 -0.11553,10.85853 -0.27007,11.6734 -0.60205,3.17464 -2.83727,6.57084 -5.37921,8.1732 l -1.46905,0.92604 -0.0127,16.61463 c -0.004,4.91935 -0.0197,4.97997 -0.66214,5.6224 -0.82769,0.82769 -1.8422,0.82769 -2.66989,0 -0.64925,-0.64924 -0.64944,-0.65109 -0.64944,-6.33755 0,-3.58904 0.10789,-17.56659 0.29237,-17.97149 0.16637,-0.36513 0.85244,-0.90401 1.59185,-1.25034 1.72524,-0.80805 3.47661,-2.57676 4.38676,-4.43018 l 0.74047,-1.50789 0.0772,-10.75414 0.0772,-10.75415 -0.64923,-0.75523 -0.64922,-0.75523 -6.96861,-0.0811 c -3.83274,-0.0446 -7.35604,-0.009 -7.82956,0.0783 -1.08368,0.20065 -1.91718,1.07684 -1.91718,2.01537 0,2.14088 0.64016,2.353 7.1013,2.353 6.90512,0 6.49897,-0.28764 6.59745,4.67237 0.0894,4.50032 -0.0224,4.78295 -2.17917,5.51107 -2.94038,0.99266 -5.43416,4.08909 -5.43416,6.74737 0,1.13214 -0.50158,2.04356 -1.30859,2.37784 -0.8666,0.35896 -1.96988,0.008 -2.37949,-0.75776 -0.61159,-1.14276 -0.13395,-4.08161 1.03499,-6.36826 0.87319,-1.70809 3.30344,-4.13605 4.94276,-4.9381 l 1.41449,-0.69204 v -1.27002 -1.27001 l -4.57642,-0.088 c -4.36613,-0.084 -4.63942,-0.12072 -5.94759,-0.80007 l -1.37118,-0.71207 -1.24444,0.69553 c -1.74022,0.97263 -3.99293,0.97384 -5.72978,0.003 l -1.23892,-0.69245 -1.12448,0.61311 c -1.44663,0.78875 -2.77837,1.01406 -4.15957,0.70373 l -1.1024,-0.2477 0.0844,7.45045 0.0844,7.45045 0.76188,1.64949 c 0.88026,1.90582 2.76179,3.81341 4.53495,4.59776 0.64814,0.2867 1.29908,0.7467 1.44653,1.02222 0.17349,0.32418 0.2681,3.41908 0.2681,6.21891 v 17.88881 l -0.64943,0.64943 c -0.77899,0.77899 -1.71303,0.83139 -2.5624,0.14373 z m -0.1241,-51.3387 c 0.37377,-0.37377 0.53496,-1.01013 0.62967,-2.48587 0.15524,-2.41906 -0.0687,-3.74257 -0.74808,-4.422 -0.66367,-0.66367 -2.1178,-0.66817 -2.93249,-0.009 -0.57276,0.46337 -0.63211,0.73768 -0.71475,3.30366 l -0.0901,2.79834 0.82833,0.82833 c 0.69981,0.69981 0.95996,0.802 1.67671,0.65865 0.46661,-0.0933 1.07444,-0.39574 1.35074,-0.67204 z m 8.29687,-0.17095 c 0.57142,-0.63952 0.59531,-0.86063 0.59531,-5.51061 0,-4.50027 -0.0389,-4.89387 -0.54837,-5.54149 -0.40543,-0.51543 -0.78928,-0.69714 -1.4726,-0.69714 -1.31766,0 -1.88519,0.39339 -2.19931,1.52447 -0.3773,1.35857 -0.32709,8.43113 0.068,9.58113 0.57246,1.66618 2.35505,1.98875 3.55694,0.64364 z m 8.79739,-7.82595 c 0,-1.10491 -3.73294,-20.6452933 -4.03705,-21.1322453 -0.73053,-1.169772 -2.56374,-1.123959 -3.4676,0.08666 l -0.5409,0.724477 1.38681,7.5696833 c 0.76275,4.163316 1.58191,7.942125 1.82035,8.397345 0.25336,0.4837 0.48125,1.70733 0.54835,2.94433 l 0.11482,2.11667 2.08761,-0.0863 c 1.88946,-0.0781 2.08761,-0.137 2.08761,-0.62062 z m 8.74106,-0.0207 c 0.41204,-0.93253 5.54644,-19.2220393 5.54644,-19.7572623 0,-0.262974 -0.24676,-0.79185 -0.54837,-1.175276 -0.72589,-0.922828 -2.279,-0.97412 -3.08329,-0.101828 -0.37687,0.408734 -1.46933,3.842536 -3.4857,10.9561893 -1.61524,5.698477 -2.9368,10.431217 -2.9368,10.517187 0,0.086 0.95505,0.15631 2.12234,0.15631 1.94661,0 2.14411,-0.0493 2.38538,-0.59532 z"
     style="display:inline;fill:#000000;stroke-width:0.264583"
     id="path552"
     sodipodi:nodetypes="ccssssscsscscsssssssssscscssssscssssssscccccscsscssscssccccscsccsscccsssscscccsccscssccsscsssssssscssscssssssssss" /></svg>
